<?xml version="1.0" standalone="no"?><!DOCTYPE svg PUBLIC "-//W3C//DTD SVG 1.1//EN" "http://www.w3.org/Graphics/SVG/1.1/DTD/svg11.dtd"><svg t="1702457551019" class="icon" viewBox="0 0 1024 1024" version="1.1" xmlns="http://www.w3.org/2000/svg" p-id="902" xmlns:xlink="http://www.w3.org/1999/xlink" width="200" height="200"><path d="M685.41533996 785.20276315c13.69285398-3.91224436 27.75830342-6.33410944 41.07856321-11.82988114 12.01617855-4.93687948 23.93920777-9.96690768 33.34722319-19.09547699 8.84912384-8.66282644 16.58046322-18.07084187 20.21326083-30.5527633 2.60816248-9.03542061 2.23556829-18.07084187 2.98075794-27.1062625 1.39722995-16.67361192-2.60816248-32.13629065-8.66282644-47.41267263a56.20590661 56.20590661 0 0 0-16.11471969-24.59124806c-5.49577172-4.84373078-10.33950248-10.24635379-15.74212486-15.27638198-3.81909565-3.63279825-5.58892043-8.10393419-4.56428464-13.22711107 1.58352736-8.66282644 0.74518965-17.41880092 1.11778382-26.08162672 0.74518965-14.25174622-1.67667607-27.85145212-8.75597514-40.42652229-7.07929908-12.57507014-16.67361192-22.63512653-29.99387106-28.78293917-5.68206849-3.07390601-11.92302985-4.65743336-17.69824706-7.45189325-1.76982475-1.02463512-4.19168984 0-5.68206911-1.86297348-4.56428467-5.68206849-9.59431284-11.45728632-9.78061028-19.18862569-0.37259482-15.64897615-5.49577172-29.80757366-13.32025914-42.94153605-4.28483854-7.17244778-10.15320509-13.5997059-17.32565222-17.60509833-18.16399057-10.24635379-38.37725138-12.20247532-58.77681026-11.45728632-8.56967772 0.27944612-16.67361192-4.65743336-18.90917957-12.85451628-0.83833771-3.07390601-0.46574353-5.9615146 1.86297348-8.476529 2.88760859-3.16705471 5.21632559-6.70670425 6.52040684-10.80524538 0.65204092-1.30408124 1.30408124-2.51501377 1.86297283-3.81909565 8.75597513-19.1886257 3.26020342-37.16631885-16.11471967-47.87841553-3.72594694-2.04927089-5.77521719-1.49037865-7.35874455 2.70131118-1.30408124 3.35335212-3.16705471 6.42725812-5.96151461 9.03542125-9.31486673 8.94227191-18.25713928 17.97769315-30.55276333 23.56661295-11.92302985 5.49577172-24.03235647 10.61894797-36.32798113 15.09008456-16.02157099 5.77521719-31.76369585 11.82988114-46.7606317 19.9338147-23.00772135 12.38877274-38.37725138 30.2733172-44.71136081 56.07549843-1.76982475 7.17244778-1.58352736 14.06544879-1.86297347 21.05159916-0.27944612 7.63819067-4.00539308 12.38877274-11.17784021 14.53119233-8.2902316 2.51501377-17.0462061 4.47113595-24.87069483 7.82448871-37.25946756 15.83527357-49.74138901 40.51967098-48.80990193 77.31339501 0.09314871 5.68206849 2.04927089 11.64358373 4.47113596 16.8599087 6.14781202 13.04081367 3.26020342 22.72827522-9.87375897 28.59664112-8.94227191 4.00539308-17.0462061 9.12856931-24.4981 15.46267938-6.98615036 5.9615146-13.78600268 12.57507014-17.41880091 20.95845046-6.33410944 14.62434104-8.2902316 30.08701978-6.98615038 46.38803689 2.328717 27.19941118 14.1585975 48.53045647 35.6759402 64.83147355 7.35874455 7.35874455 17.13935482 10.80524539 26.17477607 15.09008393 21.61049139 10.24635379 44.4319147 16.67361192 67.81223085 21.98308622 34.09241285 7.82448808 68.55741986 10.71209668 103.20872496 11.55043439 37.63206238 1.02463512 75.26412413 0 112.80303779-3.44650021 12.29562403-1.11778383 24.68439741-1.86297348 36.70057532-4.19169046 20.86530175-3.91224436 41.91690092-6.79985295 62.50275657-12.57507014z m-281.3089792-88.58438393c-2.98075731 4.75058208-6.89300167 7.26559585-8.75597512 8.29023162-9.31486673 5.3094743-20.39955824 3.07390601-31.20480362 2.32871636-9.87375896-0.65204092-17.60509834-6.61355554-24.40495129-13.32025916-1.21093253-1.21093253-8.10393419-11.73673244-5.0300282-22.4488291 4.84373078-16.76676062 31.94999325-23.84605906 50.67287544-17.69824705 3.72594694 1.21093253 13.22711108 4.47113595 18.6297341 13.8791514 4.75058208 8.2902316 5.58892043 20.02696404 0 28.87608723z m33.99926415-57.47272835c-6.61355554 3.91224436-16.3010171 0-18.5365854-7.73134002-1.21093253-4.19168984-1.21093253-8.75597513-1.67667606-12.10932663 0.37259482-4.28483854 0.18629741-7.54504196 1.02463576-10.61894797 2.04927089-7.63819067 11.73673244-11.73673244 18.44343605-7.82448872 8.56967772 4.93687948 7.91763678 13.69285398 8.47652901 21.98308622 0.46574353 6.98615036-1.67667607 12.66821886-7.73133937 16.2078684z m-3.44650084-79.17636849c-2.70131118 0.74518965-4.37798725-0.55889224-5.68206911-2.79445989-2.14241959-3.44650083-1.02463512-6.42725812 1.02463575-9.40801608 0.55889224-0.83833771 1.11778383-1.76982475 1.76982477-2.60816247 6.79985295-8.01078549 27.6651547-9.22171803 35.5827915-2.23556832 3.35335212 2.88760859 5.12317689 6.14781202 3.44650019 10.52579993-1.67667607 4.37798725-5.8683659 5.40262301-9.40801544 4.75058207-9.12856931-1.49037865-17.97769315-0.55889224-26.82681636 1.76982476z m118.6714037 116.62213281c-1.49037865 3.81909565-3.81909565 7.73133938-9.78061026 13.50655721-6.14781202 5.9615146-11.08469149 10.71209668-19.2817744 14.25174621-16.39416579 7.17244778-32.22943938 3.26020342-34.09241284 2.79445989-19.56122051-5.03002819-30.45961461-20.49270694-33.90611544-30.83220879-1.02463512-3.16705471-3.16705471-9.40801543 0.37259484-12.94766498 1.86297348-1.86297348 4.84373078-2.79445988 8.47652901-2.5150144 2.23556829 0.18629741 3.81909565 1.30408124 4.84373078 2.04927089 6.05466331 4.28483854 7.54504196 10.15320509 10.71209667 14.62434102 2.328717 3.26020342 6.61355554 7.35874455 15.74212487 10.15320444 7.45189327 2.14241959 12.48192143 1.30408124 15.64897678 0.18629742 8.56967772-2.98075731 15.36953003-11.92302985 22.26253171-21.14474725 3.44650083-4.65743336 5.40262301-7.82448808 9.22171802-8.2902316 4.00539308-0.55889224 8.47652903 2.14241959 10.43265119 5.49577108 2.51501377 4.28483854 0.74518965 9.03542061-0.65204093 12.76136756z m-2.42186508-119.04399852c-4.19168984 0.74518965-8.10393419-1.02463512-9.31486736-5.96151461-1.02463512-4.19168984 0.83833771-7.63819067 5.2163256-9.87375897 10.52579927-5.12317689 20.95845046-4.47113595 31.20480425 0.74518966 2.51501377 1.30408124 4.00539308 3.44650083 5.49577107 5.86836589 1.76982475 2.88760859 1.39722995 5.77521719-0.27944548 8.29023161-1.76982475 2.70131118-4.65743336 3.63279825-7.73134001 2.60816248-8.10393419-2.60816248-16.20786839-3.07390601-24.59124807-1.67667606z m33.1609258 79.08321977c-6.70670425 2.14241959-11.1778402 0.18629741-14.90378714-4.84373077-4.84373078-6.52040684-4.84373078-21.42419399-0.37259419-28.50349243 2.98075731-4.75058208 6.98615036-8.10393419 12.66821885-6.52040683 5.77521719 1.58352736 9.87375896 5.68206849 11.17784021 11.64358373 0.65204092 3.07390601 0.37259482 6.24096072 0.46574288 7.54504195 0 9.59431284 0.83833771 17.32565222-9.22171803 20.58585565z m22.07623429 34.46500767c0.09314871-0.55889224 0.46574353-1.67667607 1.02463576-2.98075731 5.58892043-12.10932663 26.82681636-18.62973346 44.24561728-14.06544943 13.22711108 3.44650083 25.0569916 13.4134085 28.31719565 24.68439741 0.65204092 2.14241959 1.95612218 6.79985295 0.37259419 12.29562403-1.86297348 6.14781202-6.33410944 9.59431284-7.82448807 10.71209731-7.07929908 5.21632559-15.09008456 4.84373078-25.15014031 4.28483855-12.38877274-0.74518965-18.72288217-1.11778383-25.70903252-5.68206849-9.22171803-5.9615146-17.41880092-18.16399057-15.27638198-29.24868207z" fill="#CBAB84" p-id="903"></path><path d="M385.47662667 653.86313996c-18.72288217-6.14781202-45.73599657 0.93148643-50.67287542 17.69824704-3.07390601 10.71209668 3.81909565 21.23789659 5.0300282 22.44882975 6.79985295 6.70670425 14.43804362 12.66821886 24.40495127 13.32025915 10.71209668 0.74518965 21.88993688 2.98075731 31.20480362-2.32871636 1.86297348-1.02463512 5.77521719-3.53964953 8.75597513-8.2902316 5.58892043-8.84912384 4.75058208-20.58585564 0-28.87608726-5.40262301-9.40801543-14.90378715-12.66821886-18.6297341-13.87915203zM679.82642019 678.64068608c-3.26020342-11.27098891-15.18323327-21.23789659-28.31719567-24.68439743-17.51194963-4.56428467-38.6566975 1.95612218-44.24561727 14.06544946-0.65204092 1.30408124-0.93148643 2.42186507-1.02463576 2.98075729-2.14241959 11.08469149 6.14781202 23.19401876 15.27638197 29.24868207 6.98615036 4.56428467 13.32025979 4.93687948 25.70903252 5.6820685 9.96690768 0.65204092 18.07084187 1.02463512 25.1501403-4.28483855 1.58352736-1.11778383 6.05466331-4.56428467 7.82448808-10.71209731 1.58352736-5.49577172 0.27944612-10.15320509-0.37259417-12.29562403z" fill="#FFC5BA" p-id="904"></path><path d="M236.34560837 409.5341822c9.12856931-2.23556829 11.64358373-9.78061027 10.43265056-19.09547698-0.83833771-6.61355554-1.21093253-13.32025979-1.11778382-19.93381534 0.18629741-13.78600268 6.52040684-21.61049139 19.2817744-25.89532995 6.98615036-2.328717 14.06544879-3.07390601 21.33104528-3.44650019 19.00232827-1.02463512 24.12550518-6.42725812 25.05699158-25.61588382 0.27944612-5.49577172 0.65204092-10.33950248 3.81909566-15.64897679 8.66282644-14.34489492 21.42419399-17.60509834 34.93075056-16.58046258h6.79985295c12.94766498 0.27944612 20.12011275-4.28483854 21.23789658-13.5065572 0.93148643-8.01078549-6.24096072-13.9723001-17.51194963-17.88454446-23.19401876-8.01078549-69.39575822 14.06544879-75.45042152 38.6566975-3.91224436 15.74212487-12.76136756 20.39955824-26.82681701 24.21865388-42.66209057 11.55043503-48.90305129 46.01544206-39.58818392 81.97082838 2.23556829 8.47652903 8.01078549 15.09008456 17.51194963 12.85451626zM783.03514512 323.5579614c-6.42725812-2.60816248-8.75597513-6.42725812-9.50116477-13.32025979-4.75058208-46.10859076-42.75523863-60.8260805-81.13249001-49.6482403-7.82448808 2.23556829-12.48192143 9.22171803-11.36413763 17.13935482 1.11778383 8.56967772 8.56967772 10.24635379 16.3010171 9.87375897 2.60816248-0.09314871 5.21632559-0.27944612 6.89300103-0.37259483h8.66282643c23.56661295 0.55889224 32.50888548 10.80524539 29.71442559 33.90611544-2.14241959 17.79139575 3.26020342 25.243289 21.14474786 28.96923594 17.41880092 3.63279825 26.17477605 13.5065572 27.47885667 31.20480425 0.55889224 6.70670425 0 13.32025979-2.51501376 19.74751728-2.23556829 5.68206849-1.21093253 10.61894797 3.53964952 15.09008457 4.75058208 4.47113595 9.87375896 4.47113595 15.46267874 2.79445988 8.38338031-2.51501377 11.73673244-9.59431284 12.76136757-16.85990869 4.19168984-30.64591202-3.16705471-64.73832486-37.63206174-78.61747623zM453.28885753 239.53786215c7.54504196 4.37798725 12.57507014 1.86297348 19.1886257-8.84912383 2.51501377-4.09854113 6.24096072-7.82448808 10.15320507-10.61894797 8.01078549-5.68206849 22.2625317-6.24096072 26.82681636-1.86297348 17.0462061 16.4873145 19.46807181 16.39416579 39.49503586 4.75058206 8.66282644-5.03002819 18.44343668-9.12856931 29.06238466-5.86836589 8.1970829 2.51501377 12.57507014 9.03542061 16.39416579 16.11471968 2.60816248 4.84373078 6.42725812 9.12856931 12.57507014 7.54504197 5.58892043-1.49037865 11.73673244-3.53964953 11.27098893-11.45728633 0.93148643-6.98615036 1.11778383-13.9723001-3.35335213-19.84066663-19.00232827-25.15014029-50.57972735-28.87608726-77.4065437-12.76136756-3.81909565 2.328717-6.24096072 2.328717-9.59431287 0-28.03774954-19.56122051-62.22331044-11.27098891-78.05858463 18.90918022-7.73133938 9.03542061-2.98075731 20.21326082 3.44650082 24.03235647zM804.27304107 641.3812185c-3.07390601-6.42725812-4.84373078-9.50116414-7.82448809-13.59970526-6.14781202-8.66282644-14.71748974-14.90378715-22.16938299-22.3556804-1.67667607-1.67667607-3.63279825-3.07390601-3.073906-5.96151526 3.07390601-15.92842227 1.95612218-31.85684454 0.93148642-47.97156421-0.93148643-14.81063844-6.05466331-27.6651547-14.15859751-39.30873845-12.01617855-17.32565222-28.13089824-30.36646589-48.53045648-36.42112921-8.94227191-2.60816248-14.06544879-5.77521719-13.69285397-15.36953004-1.30408124-10.06005637-3.72594694-19.84066663-6.89300167-29.34183076-7.73133938-22.72827522-22.72827522-39.49503521-44.33876599-49.18249741-14.62434104-6.61355554-30.45961461-9.87375896-47.04007781-8.94227191-6.24096072 0.37259482-9.31486673 0.37259482-10.15320508-0.93148706-1.58352736-2.51501377 1.86297348-7.17244778 3.35335213-9.40801543 10.52579927-16.02157099 5.58892043-38.93614362 5.3094743-40.14707615-4.84373078-21.23789659-23.65976165-31.85684454-30.27331782-35.58279151-13.32025979-7.54504196-21.23789659-5.8683659-30.92535749 6.05466395-9.96690768 12.29562403-21.51734269 22.44882911-35.67594021 29.71442496-13.22711108 5.03002819-26.26792477 10.33950248-39.58818456 14.99693586-21.88993688 7.73133938-42.84838734 17.32565222-62.50275657 29.62127626-16.11471968 9.96690768-27.19941118 24.12550518-35.58279149 41.1717119-6.33410944 12.94766498-10.71209668 26.17477605-10.89839408 40.51967098-0.09314871 9.50116414-0.27944612 9.78061027-10.06005638 10.33950185-5.8683659 0.37259482-11.36413762 1.76982475-16.20786839 5.21632561-23.19401876 7.07929908-40.14707616 22.35568041-51.69751117 42.84838733-14.71748974 25.89532995-18.16399057 53.28103853-5.77521719 81.50508548 1.67667607 3.72594694 1.58352736 6.79985295-3.53964955 8.29023161-13.22711108 3.81909565-24.03235647 11.92302985-33.81296672 21.14474787-15.83527357 14.71748974-22.35568041 33.81296673-25.61588382 54.77141718-2.51501377 16.20786839-2.04927089 31.67054713 1.67667605 46.667483 0.55889224 2.23556829 3.81909565 14.81063844 10.80524539 27.3857086 7.07929908 12.57507014 21.61049139 31.39110165 63.71368972 51.88380795 40.33337356 19.56122051 74.98467801 25.61588382 106.37577967 30.83220942 39.58818392 6.61355554 70.60669076 7.45189327 94.1733037 7.9176368 35.11704797 0.74518965 61.85071626-1.49037865 81.78453159-2.32871637 29.90072238-1.30408124 59.33570184-5.8683659 88.86382941-10.06005639 6.79985295-0.93148643 13.69285398-2.04927089 20.95845046-3.35335211 0 0 15.83527357-2.88760859 30.18016912-6.33410943 35.58279149-8.66282644 53.74678207-13.04081367 71.72447459-26.45422218 5.40262301-4.00539308 24.31180259-18.44343668 34.93075055-44.6182121 9.12856931-22.44882911 7.35874455-42.01004963 5.68206912-61.66441885-1.86297348-21.33104528-7.07929908-34.46500766-10.33950248-41.3580087z m-21.23789594 55.23716072c-0.74518965 9.03542061-0.46574353 18.07084187-2.98075794 27.1062625-3.63279825 12.48192143-11.27098891 21.88993688-20.21326083 30.5527633-9.40801543 9.22171803-21.33104528 14.1585975-33.34722319 19.095477-13.32025979 5.49577172-27.38570859 7.91763678-41.07856321 11.82988112-20.58585564 5.8683659-41.63745481 8.66282644-62.50275655 12.57507016-12.01617855 2.23556829-24.4049513 2.98075731-36.70057533 4.19169047-37.53891367 3.53964953-75.17097542 4.47113595-112.8030378 3.4465002-34.65130444-0.93148643-69.20946081-3.72594694-103.20872495-11.55043439-23.38031553-5.3094743-46.20173946-11.82988114-67.81223087-21.98308622-9.03542061-4.28483854-18.81603086-7.73133938-26.17477605-15.09008393-21.51734269-16.3010171-33.34722321-37.63206238-35.6759402-64.83147357-1.39722995-16.20786839 0.55889224-31.67054713 6.98615036-46.38803686 3.63279825-8.38338031 10.43265119-14.90378715 17.41880093-20.95845047 7.35874455-6.33410944 15.55582746-11.45728632 24.4981-15.46267939 13.22711108-5.8683659 16.02157099-15.46267874 9.87375896-28.59664113-2.42186507-5.21632559-4.28483854-11.1778402-4.47113594-16.85990932-0.93148643-36.88687273 11.55043503-61.47812144 48.80990193-77.31339501 7.82448808-3.35335212 16.58046322-5.3094743 24.87069482-7.82448808 7.26559585-2.23556829 10.89839408-6.98615036 11.1778402-14.53119232 0.27944612-7.07929908 0.18629741-13.9723001 1.86297347-21.05159918 6.24096072-25.89532995 21.70364011-43.68672569 44.71136082-56.07549843 14.99693586-8.10393419 30.73906072-14.1585975 46.7606317-19.9338147 12.29562403-4.47113595 24.31180259-9.59431284 36.3279805-15.09008456 12.29562403-5.58892043 21.23789659-14.62434104 30.55276332-23.56661293 2.70131118-2.60816248 4.65743336-5.68206849 5.96151523-9.03542126 1.58352736-4.19168984 3.63279825-4.75058208 7.35874455-2.70131117 19.28177439 10.61894797 24.87069482 28.68978983 16.11471969 47.87841551-0.55889224 1.30408124-1.21093253 2.51501377-1.86297348 3.81909566-1.39722995 4.09854113-3.63279825 7.63819067-6.52040684 10.80524538-2.328717 2.51501377-2.70131118 5.40262301-1.86297284 8.47652903 2.23556829 8.1970829 10.43265119 13.13396239 18.90917959 12.85451625 20.39955824-0.74518965 40.61281968 1.21093253 58.77680961 11.45728632 7.17244778 4.00539308 13.04081367 10.43265119 17.32565286 17.60509835 7.82448808 13.22711108 12.94766498 27.29255989 13.32025915 42.94153604 0.18629741 7.73133938 5.12317689 13.5065572 9.78061025 19.18862569 1.49037865 1.76982475 3.91224436 0.83833771 5.68206914 1.86297346 5.77521719 2.79445988 12.01617855 4.47113595 17.69824703 7.45189328 13.32025979 6.14781202 22.82142394 16.11471968 29.99387108 28.78293917 7.07929908 12.57507014 9.40801543 26.08162735 8.75597514 40.42652163-0.46574353 8.66282644 0.46574353 17.41880092-1.11778447 26.08162736-0.93148643 5.12317689 0.74518965 9.59431284 4.5642853 13.22711108 5.3094743 5.03002819 10.24635379 10.43265119 15.74212486 15.27638197 7.54504196 6.70670425 12.94766498 14.90378715 16.1147197 24.59124807 6.05466331 15.18323327 10.15320509 30.64591202 8.66282579 47.41267264z" fill="#56331E" p-id="905"></path><path d="M583.23125077 556.61593025c1.67667607-2.51501377 2.04927089-5.40262301 0.27944548-8.2902316-1.39722995-2.328717-2.88760859-4.56428467-5.49577107-5.8683659-10.24635379-5.21632559-20.67900434-5.8683659-31.20480425-0.74518966-4.37798725 2.328717-6.24096072 5.77521719-5.2163256 9.87375897 1.21093253 4.93687948 5.03002819 6.61355554 9.31486736 5.96151461 8.38338031-1.39722995 16.58046322-0.93148643 24.59124808 1.67667606 3.16705471 1.02463512 5.9615146 0.09314871 7.73134001-2.60816247zM437.36043527 600.95469624c-6.70670425-3.91224436-16.4873145 0.18629741-18.44343605 7.82448809-0.83833771 2.98075731-0.65204092 6.33410944-1.02463577 10.6189486 0.46574353 3.35335212 0.46574353 7.91763678 1.67667606 12.10932662 2.23556829 7.73133938 12.01617855 11.64358373 18.5365854 7.73134002 6.05466331-3.63279825 8.1970829-9.22171803 7.73133937-16.2078684-0.55889224-8.2902316 0-16.95305739-8.47652902-21.98308623zM543.4567688 658.33427654c-3.81909565 0.55889224-5.77521719 3.72594694-9.22171802 8.29023162-6.98615036 9.22171803-13.69285398 18.16399057-22.26253171 21.14474723-3.16705471 1.11778383-8.1970829 1.95612218-15.64897616-0.18629677-9.03542061-2.79445988-13.4134085-6.98615036-15.74212549-10.15320509-3.16705471-4.47113595-4.65743336-10.24635379-10.71209669-14.62434103-1.02463512-0.74518965-2.60816248-1.86297348-4.84373075-2.04927088-3.72594694-0.37259482-6.61355554 0.55889224-8.47652903 2.51501441-3.44650083 3.44650083-1.39722995 9.78061027-0.37259482 12.94766497 3.44650083 10.43265119 14.25174622 25.80218124 33.90611543 30.83220879 1.95612218 0.46574353 17.79139575 4.37798725 34.09241286-2.79445989 8.10393419-3.53964953 13.04081367-8.2902316 19.28177438-14.25174622 5.9615146-5.77521719 8.38338031-9.68746155 9.78061027-13.50655721 1.39722995-3.72594694 3.26020342-8.38338031 0.65204093-12.76136755-2.04927089-3.35335212-6.42725812-6.05466331-10.4326512-5.49577107zM470.80080717 553.44887554c1.67667607-4.37798725 0-7.63819067-3.44650019-10.52579992-8.01078549-6.98615036-28.78293854-5.68206849-35.5827915 2.23556832-0.65204092 0.83833771-1.21093253 1.67667607-1.76982477 2.60816248-2.04927089 2.98075731-3.16705471 5.9615146-1.02463575 9.40801607 1.30408124 2.23556829 2.98075731 3.53964953 5.68206911 2.79445989 8.84912384-2.328717 17.60509834-3.26020342 26.82681636-1.76982477 3.53964953 0.55889224 7.73133938-0.46574353 9.40801544-4.75058207zM592.82556361 608.49973885c-1.30408124-6.05466331-5.49577172-10.06005637-11.17784019-11.64358373-5.77521719-1.58352736-9.68746155 1.67667607-12.66821949 6.52040682-4.47113595 7.07929908-4.56428467 21.98308559 0.37259482 28.50349244 3.72594694 5.03002819 8.1970829 6.98615036 14.90378715 4.84373078 10.06005637-3.26020342 9.31486673-10.99154279 9.22171802-20.58585565 0-1.30408124 0.18629741-4.47113595-0.46574288-7.54504198z" fill="#56331E" p-id="906"></path></svg>