<?xml version="1.0" standalone="no"?><!DOCTYPE svg PUBLIC "-//W3C//DTD SVG 1.1//EN" "http://www.w3.org/Graphics/SVG/1.1/DTD/svg11.dtd"><svg t="1702456731553" class="icon" viewBox="0 0 1024 1024" version="1.1" xmlns="http://www.w3.org/2000/svg" p-id="5585" width="180" height="180" xmlns:xlink="http://www.w3.org/1999/xlink"><path d="M784.451107 941.22613c21.512706-6.146488 43.610793-9.951456 64.53812-18.585808 18.878498-7.756282 37.61065-15.658909 52.391489-30.000713 13.90277-13.61008 26.0494-28.390919 31.756852-48.001141 4.097658-14.195459 3.512279-28.390919 4.683039-42.586378 2.195174-26.195745-4.097658-50.489005-13.61008-74.489576a88.304538 88.304538 0 0 0-25.317675-38.635064c-8.634352-7.609937-16.244289-16.097944-24.732295-24.000571-6.000143-5.707453-8.780697-12.73201-7.170902-20.780982 2.487864-13.61008 1.17076-27.366504 1.756139-40.976583 1.17076-22.390776-2.634209-43.757138-13.756425-63.513705-11.122216-19.756567-26.195745-35.561821-47.123071-45.220588-8.927041-4.829383-18.732153-7.317247-27.805539-11.707595-2.780554-1.609794-6.585522 0-8.927042-2.926899-7.170902-8.927041-15.073529-18.000428-15.366219-30.147058-0.58538-24.58595-8.634352-46.830381-20.927326-67.465018-6.731867-11.268561-15.951599-21.366362-27.220159-27.659194-28.537264-16.097944-60.294116-19.171187-92.343659-18.000428-13.463735 0.439035-26.195745-7.317247-29.708023-20.195602-1.317104-4.829383-0.731725-9.366076 2.926899-13.31739 4.536693-4.975728 8.195317-10.536836 10.244146-16.976013 1.024415-2.048829 2.048829-3.951313 2.926898-6.000143 13.756425-30.147058 5.122073-58.391632-25.317675-75.2213-5.853798-3.219589-9.073386-2.341519-11.56125 4.244003-2.048829 5.268418-4.975728 10.097801-9.366076 14.19546-14.634494 14.049114-28.683609 28.244574-48.001141 37.02527-18.732153 8.634352-37.756995 16.683323-57.074528 23.707881-25.17133 9.073386-49.903625 18.585808-73.465161 31.317817-36.147201 19.463877-60.294116 47.562106-70.245572 88.099655-2.780554 11.268561-2.487864 22.098086-2.926899 33.073957-0.439035 12.000285-6.292833 19.463877-17.561393 22.829811-13.0247 3.951313-26.781124 7.024557-39.0741 12.292976-58.537977 24.87864-78.148199 63.66005-76.684749 121.466302 0.146345 8.927041 3.219589 18.293118 7.024557 26.488434 9.658766 20.488292 5.122073 35.708166-15.512564 44.927897-14.049114 6.292833-26.781124 14.341804-38.48872 24.293261-10.975871 9.366076-21.659051 19.756567-27.366504 32.927612-9.951456 22.976156-13.0247 47.269416-10.975871 72.879781 3.658624 42.732723 22.244431 76.245715 56.050113 101.85608 11.56125 11.56125 26.927469 16.976013 41.122929 23.70788 33.952027 16.097944 69.806537 26.195745 106.539118 34.537407 53.562249 12.292975 107.709877 16.829668 162.150196 18.146772 59.123357 1.609794 118.246713 0 177.223725-5.414762 19.317532-1.756139 38.78141-2.926899 57.659907-6.585523 32.781267-6.146488 65.855224-10.683181 98.197456-19.756567z m-441.961725-139.17404c-4.683038 7.463592-10.829526 11.414905-13.756425 13.0247-14.634494 8.341662-32.049542 4.829383-49.025555 3.658623-15.512564-1.024415-27.659194-10.390491-38.342375-20.927326-1.902484-1.902484-12.73201-18.439463-7.902627-35.269131 7.609937-26.34209 50.196315-37.464305 79.611648-27.805539 5.853798 1.902484 20.780982 7.024557 29.268989 21.805396 7.463592 13.0247 8.780697 31.464163 0 45.366932z m53.415904-90.294829c-10.390491 6.146488-25.610365 0-29.122644-12.146631-1.902484-6.585522-1.902484-13.756425-2.634209-19.024842 0.58538-6.731867 0.29269-11.85394 1.609795-16.683323 3.219589-12.000285 18.439463-18.439463 28.976298-12.292976 13.463735 7.756282 12.43932 21.512706 13.31739 34.537407 0.731725 10.975871-2.634209 19.902912-12.14663 25.46402z m-5.414763-124.393201c-4.244003 1.17076-6.878212-0.87807-8.927042-4.390348-3.365934-5.414763-1.609794-10.097801 1.609795-14.78084 0.87807-1.317104 1.756139-2.780554 2.780554-4.097658 10.683181-12.585665 43.464448-14.488149 55.903768-3.512279 5.268418 4.536693 8.048972 9.658766 5.414762 16.536979-2.634209 6.878212-9.219731 8.488007-14.780839 7.463592-14.341804-2.341519-28.244574-0.87807-42.147343 2.780554z m186.443456 183.223867c-2.341519 6.000143-6.000143 12.14663-15.366219 21.220017-9.658766 9.366076-17.415048 16.829668-30.293403 22.390776-25.75671 11.268561-50.63535 5.122073-53.562249 4.390348-30.732438-7.902627-47.854796-32.195887-53.269559-48.440175-1.609794-4.975728-4.975728-14.780839 0.58538-20.341947 2.926899-2.926899 7.609937-4.390348 13.31739-3.951314 3.512279 0.29269 6.000143 2.048829 7.609937 3.219589 9.512421 6.731867 11.85394 15.951599 16.829668 22.976156 3.658624 5.122073 10.390491 11.56125 24.732295 15.951598 11.707595 3.365934 19.610222 2.048829 24.585951 0.29269 13.463735-4.683038 24.146915-18.732153 34.976441-33.220301 5.414763-7.317247 8.488007-12.292975 14.488149-13.0247 6.292833-0.87807 13.31739 3.365934 16.390634 8.634351 3.951313 6.731867 1.17076 14.195459-1.024415 20.049257z m-3.804968-187.028836c-6.585522 1.17076-12.73201-1.609794-14.634495-9.366076-1.609794-6.585522 1.317104-12.000285 8.195317-15.512564 16.536978-8.048972 32.927612-7.024557 49.025556 1.17076 3.951313 2.048829 6.292833 5.414763 8.634351 9.219731 2.780554 4.536693 2.195174 9.073386-0.439034 13.0247-2.780554 4.244003-7.317247 5.707453-12.146631 4.097658-12.73201-4.097658-25.46402-4.829383-38.635064-2.634209z m52.098799 124.246856c-10.536836 3.365934-17.561393 0.29269-23.415191-7.609937-7.609937-10.244146-7.609937-33.659337-0.585379-44.781552 4.683038-7.463592 10.975871-12.73201 19.902912-10.244146 9.073386 2.487864 15.512564 8.927041 17.561393 18.293118 1.024415 4.829383 0.58538 9.805111 0.731724 11.85394 0 15.073529 1.317104 27.220159-14.488149 32.342232z m34.683751 54.147629c0.146345-0.87807 0.731725-2.634209 1.609795-4.683038 8.780697-19.024842 42.147343-29.268988 69.513847-22.098087 20.780982 5.414763 39.366789 21.073672 44.488863 38.78141 1.024415 3.365934 3.073244 10.683181 0.585379 19.317532-2.926899 9.658766-9.951456 15.073529-12.292975 16.829669-11.122216 8.195317-23.707881 7.609937-39.513134 6.731867-19.463877-1.17076-29.415333-1.756139-40.391204-8.927041-14.488149-9.366076-27.366504-28.537264-24.000571-45.952312z" fill="#CBAB84" p-id="5586"></path><path d="M313.220393 734.879761c-29.415333-9.658766-71.855367 1.463449-79.611648 27.805539-4.829383 16.829668 6.000143 33.366647 7.902627 35.269132 10.683181 10.536836 22.683466 19.902912 38.342375 20.927326 16.829668 1.17076 34.391061 4.683038 49.025555-3.658623 2.926899-1.609794 9.073386-5.561108 13.756425-13.0247 8.780697-13.90277 7.463592-32.342232 0-45.366932-8.488007-14.780839-23.415191-19.902912-29.268989-21.805397zM775.670411 773.807516c-5.122073-17.707738-23.854226-33.366647-44.488863-38.78141-27.512849-7.170902-60.733151 3.073244-69.513847 22.098087-1.024415 2.048829-1.463449 3.804968-1.609795 4.683038-3.365934 17.415048 9.658766 36.439891 24.000571 45.952312 10.975871 7.170902 20.927327 7.756282 40.391204 8.927041 15.658909 1.024415 28.390919 1.609794 39.513134-6.731867 2.487864-1.756139 9.512421-7.170902 12.292975-16.829669 2.487864-8.634352 0.439035-15.951599-0.585379-19.317532z" fill="#FFC5BA" p-id="5587"></path><path d="M78.922141 351.016978c14.341804-3.512279 18.293118-15.366219 16.390633-30.000713-1.317104-10.390491-1.902484-20.927327-1.756139-31.317818 0.29269-21.659051 10.244146-33.952027 30.293403-40.683894 10.975871-3.658624 22.098086-4.829383 33.512992-5.414762 29.854368-1.609794 37.90334-10.097801 39.366789-40.244859 0.439035-8.634352 1.024415-16.244289 6.000143-24.585951 13.61008-22.537121 33.659337-27.659194 54.879353-26.049399h10.683181c20.341947 0.439035 31.610508-6.731867 33.366647-21.220017 1.463449-12.585665-9.805111-21.951741-27.512849-28.098229-36.439891-12.585665-109.026982 22.098086-118.539403 60.733151-6.146488 24.732295-20.049257 32.049542-42.147344 38.049685-67.025984 18.146773-76.831095 72.294401-62.1966 128.783549 3.512279 13.31739 12.585665 23.707881 27.512849 20.195602zM937.820607 215.940597c-10.097801-4.097658-13.756425-10.097801-14.927185-20.927327-7.463592-72.440746-67.172328-95.563247-127.466444-78.001854-12.292975 3.512279-19.610222 14.488149-17.854083 26.927469 1.756139 13.463735 13.463735 16.097944 25.610365 15.512564 4.097658-0.146345 8.195317-0.439035 10.829525-0.58538h13.61008c37.02527 0.87807 51.074385 16.976013 46.684037 53.269559-3.365934 27.951884 5.122073 39.659479 33.220302 45.513277 27.366504 5.707453 41.122929 21.220017 43.171757 49.025556 0.87807 10.536836 0 20.927327-3.951313 31.025127-3.512279 8.927041-1.902484 16.683323 5.561108 23.707881 7.463592 7.024557 15.512564 7.024557 24.29326 4.390348 13.171045-3.951313 18.439463-15.073529 20.049257-26.488434 6.585522-48.147486-4.975728-101.709735-59.123356-123.515131zM419.759511 83.937459c11.85394 6.878212 19.756567 2.926899 30.147058-13.90277 3.951313-6.439177 9.805111-12.292975 15.951599-16.683323 12.585665-8.927041 34.976441-9.805111 42.147343-2.926899 26.781124 25.903055 30.586093 25.75671 62.050256 7.463592 13.61008-7.902627 28.976299-14.341804 45.659622-9.219731 12.878355 3.951313 19.756567 14.195459 25.75671 25.317675 4.097658 7.609937 10.097801 14.341804 19.756567 11.85394 8.780697-2.341519 18.439463-5.561108 17.707738-18.000428 1.463449-10.975871 1.756139-21.951741-5.268418-31.171473-29.854368-39.513134-79.465304-45.366932-121.612647-20.049257-6.000143 3.658624-9.805111 3.658624-15.073529 0-44.049828-30.732438-97.758421-17.707738-122.637062 29.708024-12.14663 14.195459-4.683038 31.756852 5.414763 37.756995zM971.187253 715.269539c-4.829383-10.097801-7.609937-14.927184-12.292975-21.366361-9.658766-13.61008-23.122501-23.415191-34.830096-35.122786-2.634209-2.634209-5.707453-4.829383-4.829383-9.366077 4.829383-25.024985 3.073244-50.04997 1.463449-75.367645-1.463449-23.268846-9.512421-43.464448-22.244431-61.757566-18.878498-27.220159-44.196173-47.708451-76.245715-57.220872-14.049114-4.097658-22.098086-9.073386-21.512706-24.146915-2.048829-15.805254-5.853798-31.171473-10.829526-46.098657-12.14663-35.708166-35.708166-62.050255-69.660192-77.27013-22.976156-10.390491-47.854796-15.512564-73.904196-14.049114-9.805111 0.58538-14.634494 0.58538-15.951599-1.46345-2.487864-3.951313 2.926899-11.268561 5.268418-14.780839 16.536978-25.17133 8.780697-61.172186 8.341662-63.07467-7.609937-33.366647-37.171615-50.04997-47.562107-55.903768-20.927327-11.85394-33.366647-9.219731-48.58652 9.512422-15.658909 19.317532-33.805682 35.269131-56.050113 46.684036-20.780982 7.902627-41.269274 16.244289-62.196601 23.561536-34.391061 12.14663-67.318673 27.220159-98.197456 46.537691-25.317675 15.658909-42.732723 37.90334-55.903768 64.684465-9.951456 20.341947-16.829668 41.122929-17.122358 63.66005-0.146345 14.927184-0.439035 15.366219-15.805254 16.244288-9.219731 0.58538-17.854083 2.780554-25.46402 8.195317-36.439891 11.122216-63.07467 35.122786-81.221443 67.318673-23.122501 40.683894-28.537264 83.709307-9.073386 128.051825 2.634209 5.853798 2.487864 10.683181-5.561108 13.0247-20.780982 6.000143-37.756995 18.732153-53.123214 33.220302-24.87864 23.122501-35.122786 53.123214-40.244859 86.050826-3.951313 25.46402-3.219589 49.75728 2.634209 73.318816 0.87807 3.512279 6.000143 23.268846 16.976013 43.025413 11.122216 19.756567 33.952027 49.318246 100.099941 81.514132 63.36736 30.732438 117.807678 40.244859 167.125924 48.440176 62.1966 10.390491 110.929466 11.707595 147.954736 12.43932 55.172043 1.17076 97.173042-2.341519 128.49086-3.658623 46.976726-2.048829 93.221728-9.219731 139.613074-15.805254 10.683181-1.463449 21.512706-3.219589 32.927612-5.268418 0 0 24.87864-4.536693 47.415762-9.951456 55.903768-13.61008 84.441032-20.488292 112.685605-41.561964 8.488007-6.292833 38.19603-28.976299 54.879353-70.099227 14.341804-35.269131 11.56125-66.001569 8.927042-96.880352-2.926899-33.512992-11.122216-54.147629-16.244289-64.977154z m-33.366646 86.782551c-1.17076 14.195459-0.731725 28.390919-4.683039 42.586378-5.707453 19.610222-17.707738 34.391061-31.756852 48.001141-14.780839 14.488149-33.512992 22.244431-52.391489 30.000713-20.927327 8.634352-43.025413 12.43932-64.53812 18.585808-32.342232 9.219731-65.416189 13.61008-98.197456 19.756567-18.878498 3.512279-38.342375 4.683038-57.659907 6.585523-58.977012 5.561108-118.100368 7.024557-177.223725 5.414762-54.440318-1.463449-108.734292-5.853798-162.150196-18.146772-36.73258-8.341662-72.587091-18.585808-106.539118-34.537407-14.195459-6.731867-29.561678-12.14663-41.122929-23.70788-33.805682-25.610365-52.391489-59.123357-56.050113-101.85608-2.195174-25.46402 0.87807-49.75728 10.975871-72.879781 5.707453-13.171045 16.390634-23.415191 27.366504-32.927612 11.56125-9.951456 24.439605-18.000428 38.48872-24.293261 20.780982-9.219731 25.17133-24.29326 15.512564-44.927897-3.804968-8.195317-6.731867-17.561393-7.024557-26.488435-1.463449-57.952597 18.146773-96.587662 76.684749-121.466302 12.292975-5.268418 26.0494-8.341662 39.0741-12.292975 11.414905-3.512279 17.122358-10.975871 17.561393-22.829811 0.439035-11.122216 0.29269-21.951741 2.926899-33.073957 9.805111-40.683894 34.098372-68.635778 70.245572-88.099655 23.561536-12.73201 48.293831-22.244431 73.465161-31.317817 19.317532-7.024557 38.19603-15.073529 57.074527-23.707881 19.317532-8.780697 33.366647-22.976156 48.001141-37.02527 4.244003-4.097658 7.317247-8.927041 9.366077-14.19546 2.487864-6.585522 5.707453-7.463592 11.56125-4.244003 30.293403 16.683323 39.0741 45.074242 25.317675 75.2213-0.87807 2.048829-1.902484 3.951313-2.926899 6.000143-2.195174 6.439177-5.707453 12.000285-10.244146 16.976013-3.658624 3.951313-4.244003 8.488007-2.926898 13.31739 3.512279 12.878355 16.390634 20.634637 29.708023 20.195602 32.049542-1.17076 63.806395 1.902484 92.343658 18.000428 11.268561 6.292833 20.488292 16.390634 27.22016 27.659194 12.292975 20.780982 20.341947 42.879068 20.927326 67.465018 0.29269 12.14663 8.048972 21.220017 15.366219 30.147058 2.341519 2.780554 6.146488 1.317104 8.927042 2.926899 9.073386 4.390348 18.878498 7.024557 27.805539 11.707595 20.927327 9.658766 35.854511 25.317675 47.123071 45.220588 11.122216 19.756567 14.780839 40.976584 13.756425 63.513704-0.731725 13.61008 0.731725 27.366504-1.75614 40.976584-1.463449 8.048972 1.17076 15.073529 7.170903 20.780982 8.341662 7.902627 16.097944 16.390634 24.732295 24.000571 11.85394 10.536836 20.341947 23.415191 25.317675 38.635064 9.512421 23.854226 15.951599 48.147486 13.610079 74.489576z" fill="#56331E" p-id="5588"></path><path d="M623.910706 582.095642c2.634209-3.951313 3.219589-8.488007 0.439034-13.0247-2.195174-3.658624-4.536693-7.170902-8.634351-9.219731-16.097944-8.195317-32.488577-9.219731-49.025556-1.17076-6.878212 3.658624-9.805111 9.073386-8.195317 15.512564 1.902484 7.756282 7.902627 10.390491 14.634495 9.366076 13.171045-2.195174 26.0494-1.463449 38.635064 2.634209 4.975728 1.609794 9.366076 0.146345 12.146631-4.097658zM394.734526 651.755834c-10.536836-6.146488-25.903055 0.29269-28.976298 12.292975-1.317104 4.683038-1.024415 9.951456-1.609795 16.683324 0.731725 5.268418 0.731725 12.43932 2.634209 19.024842 3.512279 12.14663 18.878498 18.293118 29.122644 12.146631 9.512421-5.707453 12.878355-14.488149 12.14663-25.46402-0.87807-13.0247 0-26.634779-13.31739-34.537407zM561.421415 741.904319c-6.000143 0.87807-9.073386 5.853798-14.488149 13.0247-10.975871 14.488149-21.512706 28.537264-34.976441 33.220301-4.975728 1.756139-12.878355 3.073244-24.58595-0.292689-14.195459-4.390348-21.073672-10.975871-24.732296-15.951599-4.975728-7.024557-7.317247-16.097944-16.829668-22.976156-1.609794-1.17076-4.097658-2.926899-7.609937-3.219589-5.853798-0.58538-10.390491 0.87807-13.31739 3.951314-5.414763 5.414763-2.195174 15.366219-0.58538 20.341947 5.414763 16.390634 22.390776 40.537549 53.269559 48.440175 3.073244 0.731725 27.951884 6.878212 53.562249-4.390348 12.73201-5.561108 20.488292-13.0247 30.293403-22.390776 9.366076-9.073386 13.171045-15.219874 15.366219-21.220017 2.195174-5.853798 5.122073-13.171045 1.024415-20.049257-3.219589-5.268418-10.097801-9.512421-16.390634-8.634351zM447.27236 577.119914c2.634209-6.878212 0-12.000285-5.414762-16.536979-12.585665-10.975871-45.220587-8.927041-55.903768 3.512279-1.024415 1.317104-1.902484 2.634209-2.780554 4.097658-3.219589 4.683038-4.975728 9.366076-1.609795 14.78084 2.048829 3.512279 4.683038 5.561108 8.927042 4.390348 13.90277-3.658624 27.659194-5.122073 42.147343-2.780554 5.561108 0.87807 12.14663-0.731725 14.780839-7.463592zM638.984235 663.609775c-2.048829-9.512421-8.634352-15.805254-17.561393-18.293118-9.073386-2.487864-15.219874 2.634209-19.902913 10.244146-7.024557 11.122216-7.170902 34.537406 0.58538 44.781552 5.853798 7.902627 12.878355 10.975871 23.415191 7.609937 15.805254-5.122073 14.634494-17.268703 14.488149-32.342232 0-2.048829 0.29269-7.024557-0.731724-11.85394z" fill="#56331E" p-id="5589"></path></svg>